<?xml version="1.0" encoding="utf-8"?>
<!-- Generator: Adobe Illustrator 26.0.3, SVG Export Plug-In . SVG Version: 6.00 Build 0)  -->
<svg version="1.1" id="Layer_2_00000049941780463130017080000009783475151871245468_"
	 xmlns="http://www.w3.org/2000/svg" xmlns:xlink="http://www.w3.org/1999/xlink" x="0px" y="0px" viewBox="0 0 35 35"
	 style="enable-background:new 0 0 35 35;" xml:space="preserve">
<style type="text/css">
	.st0{fill:#D65E51;stroke:#D65E51;stroke-miterlimit:10;}
</style>
<path class="st0" d="M9.3,2.7c-0.4,0-0.7,0.3-0.8,0.8v2.7c0,0.4,0.3,0.7,0.8,0.7h1.8c0.7,0,1.2,0.6,1.2,1.3v2.6c0,2-1.1,3.9-2.8,5
	c-1.8,1.6-2.8,3.8-2.8,6.2v2.5c0,0.4,0.4,0.8,0.8,0.8h0h19.7c0.4,0,0.8-0.4,0.8-0.8v0V22c0-2-1.6-4.4-3.2-5.7
	c-1.5-1.3-2.4-3.1-2.4-5.1v-3c0-0.7,0.6-1.3,1.2-1.3h1.8c0.4,0,0.7-0.3,0.8-0.7V3.5c0-0.4-0.3-0.7-0.8-0.8H9.3z"/>
<path d="M17.5,34.7c-0.7,0-1.2-0.6-1.2-1.2v-6.4c0-0.7,0.6-1.2,1.2-1.2s1.2,0.6,1.2,1.2v6.4C18.8,34.2,18.2,34.7,17.5,34.7z"/>
<path d="M27.4,27.7H7.6c-1.8,0-3.3-1.5-3.3-3.3c0,0,0,0,0,0V22c0-2.7,1.3-6.4,3.9-8.2c1-0.7,1.7-1.8,1.7-3V9.4H9.3
	C7.5,9.4,6.1,8,6.1,6.2V3.5c0-1.8,1.5-3.2,3.2-3.2h16.3c1.8,0,3.2,1.5,3.2,3.2v2.7c0,1.8-1.5,3.2-3.2,3.2h-0.6v1.7
	c0,1.2,0.6,2.4,1.5,3.2l0,0c2,1.6,4,4.7,4,7.6v2.5C30.6,26.3,29.2,27.7,27.4,27.7z M9.4,2.7c-0.4,0-0.7,0.3-0.8,0.8v2.7
	c0,0.4,0.3,0.7,0.8,0.7h1.8c0.7,0,1.2,0.6,1.2,1.3v2.6c0,2-1.1,3.9-2.8,5c-1.8,1.6-2.8,3.8-2.8,6.2v2.5c0,0.4,0.4,0.8,0.8,0.8
	c0,0,0,0,0,0h19.7c0.4,0,0.8-0.4,0.8-0.8v0V22c0-2-1.6-4.4-3.2-5.7l0,0c-1.5-1.3-2.4-3.1-2.4-5.1v-3c0-0.7,0.6-1.3,1.2-1.3h1.8
	c0.4,0,0.7-0.3,0.8-0.7V3.5c0-0.4-0.3-0.7-0.8-0.8H9.4z"/>
</svg>
